# xmcd CD database file
#
# Track frame offsets:
#	150
#	2234
#	4325
#	6612
#	8697
#	22921
#	37446
#	51314
#	65135
#	75921
#	86687
#	99048
#	111744
#	120438
#	129180
#	139098
#	149055
#	161265
#	173463
#	188171
#	202884
#	214959
#	227047
#	242603
#
# Disc length: 3437 seconds
#
# Revision: 1
# Processed by: cddbd v1.5.2PL0 Copyright (c) Steve Scherf et al.
# Submitted via: CDex 1.95
#
DISCID=410d6b18
DTITLE=Jos v. d. Dungen - Musical Souvenirs (For Violin)
DYEAR=1999
DGENRE=Jazz
TTITLE0=01-Tuning Note A
TTITLE1=02-Tuning Note D
TTITLE2=03-Tuning Note G
TTITLE3=04-Tuning Note E
TTITLE4=05-Tango For You (Solo With Accompaniment)
TTITLE5=06-Tango For You (Accompaniment Only)
TTITLE6=07-Balkan (Solo With Accompaniment)
TTITLE7=08-Balkan (Accompaniment Only)
TTITLE8=09-Lazy Rag (Solo With Accompaniment)
TTITLE9=10-Lazy Rag (Accompaniment Only)
TTITLE10=11-Bella Liza (Solo With Accompaniment)
TTITLE11=12-Bella Liza (Accompaniment Only)
TTITLE12=13-The Tap Dancer (Solo With Accompaniment)
TTITLE13=14-The Tap Dancer (Accompaniment Only)
TTITLE14=15-Jig (Solo With Accompaniment)
TTITLE15=16-Jig (Accompaniment Only)
TTITLE16=17-Playing At The Club (Solo With Accompaniment)
TTITLE17=18-Playing At The Club (Accompaniment Only)
TTITLE18=19-Czardas (Solo With Accompaniment)
TTITLE19=20-Czardas (Accompaniment Only)
TTITLE20=21-No Time To Waste (Solo With Accompaniment)
TTITLE21=22-No Time To Waste (Accompaniment Only)
TTITLE22=23-Puszta, Puszta (Solo With Accompaniment)
TTITLE23=24-Puszta, Puszta (Accompaniment Only)
EXTD=YEAR: 1999
EXTT0=
EXTT1=
EXTT2=
EXTT3=
EXTT4=
EXTT5=
EXTT6=
EXTT7=
EXTT8=
EXTT9=
EXTT10=
EXTT11=
EXTT12=
EXTT13=
EXTT14=
EXTT15=
EXTT16=
EXTT17=
EXTT18=
EXTT19=
EXTT20=
EXTT21=
EXTT22=
EXTT23=
PLAYORDER=
